Coordinates
nRows=11
nColumns=24

# SIMM Motion File Header:
name Coordinates
datacolumns 24
datarows 11
otherdata 1
range 0.35833000000000004000 0.36832999999999999000

Units are S.I. units (second, meters, Newtons, ...)
Angles are in degrees.

endheader
time	pelvis_tx	pelvis_ty	pelvis_tz	pelvis_tilt	pelvis_list	pelvis_rotation	hip_flexion_r	hip_adduction_r	hip_rotation_r	knee_angle_r	ankle_angle_r	subtalar_angle_r	mtp_angle_r	hip_flexion_l	hip_adduction_l	hip_rotation_l	knee_angle_l	ankle_angle_l	subtalar_angle_l	mtp_angle_l	lumbar_extension	lumbar_bending	lumbar_rotation
      0.35833000000000004000	      1.40015187883862070000	      0.74482009375316760000	     -0.20697190850420066000	     -1.85946142598907200000	      0.28380078348602655000	      2.75248932099322550000	     31.15147772081795100000	     -1.31568736389317760000	     -0.34256178717278152000	    -45.23136746638091000000	      2.80574629053962710000	      0.00000000000000452121	     -0.00000000000001788112	     -2.45015927835235470000	      5.79734533116376220000	     -3.04174996595637780000	     -6.53140088518719160000	      7.19096834054799050000	      0.00000000000005365535	      0.00000000000004457262	     -3.67633478990575830000	     -2.05311588360095240000	      3.23103455047760630000
      0.35932999999999998000	      1.40114201007783690000	      0.74471136536976179000	     -0.20693818610565945000	     -1.85648593244482660000	      0.27170235026363282000	      2.76949439774467750000	     31.19959011522839300000	     -1.30214693840338590000	     -0.41235170433128521000	    -44.90007014317113500000	      2.84408420401557780000	      0.00000000000000454463	     -0.00000000000001797487	     -2.58968497832881940000	      5.78455413881230120000	     -3.07172986253904860000	     -6.43519260138071570000	      7.20057050180073780000	      0.00000000000005404212	      0.00000000000004494615	     -3.68267180665528840000	     -2.04656907152064570000	      3.21717298126873400000
      0.36032999999999998000	      1.40213300120322650000	      0.74459941530455243000	     -0.20690494322772368000	     -1.85381445853985970000	      0.25974749428078081000	      2.78679842530335660000	     31.24667339784601000000	     -1.28903908338717120000	     -0.48308656118051946000	    -44.56689791785806400000	      2.88137613899404910000	      0.00000000000000456621	     -0.00000000000001806779	     -2.72845985138305740000	      5.77180527838096680000	     -3.10165248054353300000	     -6.34010381575736040000	      7.21054269455154010000	      0.00000000000005447716	      0.00000000000004528115	     -3.68845213925104960000	     -2.04007047604187260000	      3.20264505354630600000
      0.36132999999999998000	      1.40312486374018160000	      0.74448425647738392000	     -0.20687219682318797000	     -1.85144619080614350000	      0.24794312554052531000	      2.80440116933718550000	     31.29272627435964100000	     -1.27636492599380920000	     -0.55473711687475813000	    -44.23186401291177100000	      2.91760183645310270000	      0.00000000000000458601	     -0.00000000000001815859	     -2.86648621568978750000	      5.75910237159618270000	     -3.13150698834347630000	     -6.24613596841979120000	      7.22088587881785760000	      0.00000000000005491290	      0.00000000000004565039	     -3.69367779658646130000	     -2.03362095591053250000	      3.18743995872907200000
      0.36232999999999999000	      1.40411760855137140000	      0.74436590243899858000	     -0.20683996251751693000	     -1.84938003610771350000	      0.23629628308183767000	      2.82230211487344680000	     31.33774769554556300000	     -1.26412550828685940000	     -0.62727461297851528000	    -43.89498235113925500000	      2.95274136683808710000	      0.00000000000000460743	     -0.00000000000001825018	     -3.00376712345838600000	      5.74644926626170700000	     -3.16128231806408340000	     -6.15328958190141150000	      7.23160056850421460000	      0.00000000000005536230	      0.00000000000004597648	     -3.69835148504100130000	     -2.02722184744015400000	      3.17154730078219100000
      0.36332999999999999000	      1.40511124622047070000	      0.74424436733944821000	     -0.20680825465270622000	     -1.84761462151316390000	      0.22481412530121869000	      2.84050045809319980000	     31.38173685832967400000	     -1.25232177758051440000	     -0.70067076621250057000	    -43.55626759402413500000	      2.98677515433977580000	      0.00000000000000462898	     -0.00000000000001834128	     -3.14030635960699640000	      5.73385002852911810000	     -3.19096718125486060000	     -6.06156427891190220000	      7.24268683002163010000	      0.00000000000005581786	      0.00000000000004625404	     -3.70247641060058140000	     -2.02087497787969510000	      3.15495761722937210000
      0.36432999999999999000	      1.40610578743590580000	      0.74411966589643364000	     -0.20677708633158923000	     -1.84614829414576210000	      0.21350392027788662000	      2.85899509814125040000	     31.42469320701237100000	     -1.24095457679278430000	     -0.77489776118755127000	    -43.21573518001747500000	      3.01968400116710310000	      0.00000000000000464964	     -0.00000000000001843221	     -3.27610844022582890000	      5.72130893515004150000	     -3.22055008456732050000	     -5.97095880001563200000	      7.25414428086071530000	      0.00000000000005628274	      0.00000000000004649994	     -3.70605608081495990000	     -2.01458267878690430000	      3.13766290026038550000
      0.36532999999999999000	      1.40710124337458060000	      0.74399181336361153000	     -0.20674646946262365000	     -1.84497912101058460000	      0.20237303610358323000	      2.87778462895179970000	     31.46661643465536100000	     -1.23002463481679980000	     -0.84992824312875048000	    -42.87340136277620700000	      3.05144911180812970000	      0.00000000000000466958	     -0.00000000000001852115	     -3.41117861082841590000	      5.70883046570995490000	     -3.25001934544269180000	     -5.88147102125941500000	      7.26597208814224780000	      0.00000000000005675736	      0.00000000000004667933	     -3.70909410661551010000	     -2.00834779940571020000	      3.11965711787194970000
      0.36632999999999999000	      1.40809762608559820000	      0.74386082549890098000	     -0.20671641480520025000	     -1.84410488879899530000	      0.19142893121674151000	      2.89686733108902890000	     31.50750648462861700000	     -1.21953255691022710000	     -0.92573531059058034000	    -42.52928324934955400000	      3.08205211727916820000	      0.00000000000000468766	     -0.00000000000001860966	     -3.54552284439346770000	      5.69641929484445700000	     -3.27936310780945070000	     -5.79309797174972640000	      7.27816896714666760000	      0.00000000000005723752	      0.00000000000004686072	     -3.71159400399540470000	     -2.00217372004769740000	      3.10093673504041780000
      0.36732999999999999000	      1.40909494885109750000	      0.74372671853408212000	     -0.20668693201311605000	     -1.84352310391991600000	      0.18067914450986849000	      2.91624116378491880000	     31.54736355285276200000	     -1.20947881498252840000	     -1.00229250792102340000	    -42.18339883809436200000	      3.11147509931609980000	      0.00000000000000470488	     -0.00000000000001869361	     -3.67914783846604540000	      5.68408028442796100000	     -3.30856935721862300000	     -5.70583585056070320000	      7.29073317304272540000	      0.00000000000005768867	      0.00000000000004707755	     -3.71355900667811150000	     -1.99606436407095970000	      3.08150120916968540000
      0.36832999999999999000	      1.41009322635538380000	      0.74358950915733124000	     -0.20665802965800836000	     -1.84323099433738260000	      0.17013128395078619000	      2.93590375840009840000	     31.58618809431373400000	     -1.19986373699565460000	     -1.07957381520566980000	    -41.83576705453425900000	      3.13970061393296310000	      0.00000000000000472028	     -0.00000000000001877741	     -3.81206100562563940000	      5.67181847498602480000	     -3.33762593551708160000	     -5.61968004197825530000	      7.30366245807090400000	      0.00000000000005815949	      0.00000000000004726365	     -3.71499197210369350000	     -1.99002419873502290000	      3.06135327001937310000
